<!-- <svg width="23" height="19" viewBox="0 0 23 19" fill="none" xmlns="http://www.w3.org/2000/svg">
<path d="M23 2.24931C22.1447 2.63077 21.2333 2.88362 20.2831 3.00638C21.2606 2.413 22.0067 1.48054 22.3574 0.356615C21.4461 0.909077 20.4398 1.29931 19.3674 1.51708C18.5021 0.580231 17.2687 0 15.9232 0C13.3127 0 11.2111 2.15431 11.2111 4.79531C11.2111 5.17531 11.2427 5.54069 11.3203 5.88854C7.40025 5.69415 3.93156 3.78392 1.60137 0.874C1.19456 1.59162 0.955938 2.413 0.955938 3.29723C0.955938 4.95754 1.79688 6.42931 3.05037 7.28138C2.29281 7.26677 1.54962 7.04315 0.92 6.69092C0.92 6.70554 0.92 6.72454 0.92 6.74354C0.92 9.07323 2.55444 11.0083 4.69775 11.4541C4.31394 11.5608 3.89562 11.6119 3.4615 11.6119C3.15963 11.6119 2.85487 11.5944 2.56881 11.5301C3.17975 13.4286 4.91338 14.8244 6.97475 14.8697C5.3705 16.1456 3.33356 16.9144 1.12844 16.9144C0.74175 16.9144 0.370875 16.8968 0 16.8486C2.08869 18.2181 4.56406 19 7.2335 19C15.9102 19 20.654 11.6923 20.654 5.358C20.654 5.14608 20.6468 4.94146 20.6367 4.73831C21.5726 4.06308 22.3589 3.21977 23 2.24931Z" fill="white"/>
</svg> -->

<svg width="55" height="55" viewBox="0 0 55 55" fill="none" xmlns="http://www.w3.org/2000/svg">
<g clip-path="url(#clip0_5_4)">
<path d="M34.9962 30.2729C36.2353 30.6628 37.4227 31.2014 38.5322 31.8771L38.4612 31.8358C39.6735 32.3744 40.7208 33.0046 41.6764 33.7448L41.642 33.7196C41.6878 33.8594 41.7153 34.0175 41.7153 34.1848L41.713 34.2581V34.2558C41.6787 35.239 41.461 36.1625 41.092 37.0035L41.1103 36.9554C40.581 38.0165 39.6987 38.8346 38.6193 39.27L38.5872 39.2815C37.4704 39.8654 36.2353 40.1875 34.9755 40.2233H34.9618C32.5572 39.9142 30.2335 39.1505 28.1143 37.9729L28.2128 38.0233C25.9619 37.0037 23.9151 35.5834 22.172 33.8319L22.1697 33.8296C20.2685 31.8501 18.5447 29.7076 17.018 27.4267L16.9103 27.2571C15.3954 25.2768 14.5164 22.8837 14.3895 20.3935L14.3872 20.3638V20.0796C14.4208 19.0159 14.6706 17.9702 15.1213 17.0061C15.572 16.042 16.2143 15.1798 17.0089 14.4719L17.0158 14.465C17.5066 13.9759 18.1677 13.6959 18.8605 13.6835H18.8628C19.0943 13.6904 19.3166 13.7088 19.532 13.7408L19.5022 13.7363C19.7016 13.766 19.933 13.7844 20.1714 13.789H20.1783C20.5119 13.7565 20.8466 13.839 21.127 14.0227L21.1224 14.0204C21.3676 14.2908 21.5555 14.6185 21.6678 14.9783L21.6724 14.9967C21.8619 15.4703 22.253 16.5122 22.8458 18.1225C23.1551 18.8421 23.4576 19.729 23.7005 20.641L23.7326 20.7854C23.5673 21.583 23.1368 22.3011 22.5112 22.8227L22.5043 22.8273C21.6869 23.692 21.2783 24.242 21.2783 24.4773C21.287 24.6702 21.3515 24.8565 21.4639 25.0135L21.4616 25.0113C22.3479 26.8435 23.5734 28.4913 25.0733 29.8673L25.0847 29.8788C26.6548 31.2932 28.4151 32.4811 30.3143 33.4079L30.4495 33.4675C30.6817 33.6182 30.9498 33.7044 31.2264 33.7173H31.231C31.5869 33.7173 32.2271 33.1429 33.1514 31.994C34.0757 30.8451 34.6898 30.2706 34.9939 30.2706L34.9962 30.2729ZM27.7843 49.1013H27.8347C30.8438 49.1056 33.8207 48.4819 36.5751 47.2702L36.4353 47.3252C41.8345 45.0473 46.0443 40.8375 48.2672 35.5827L48.3222 35.4383C49.4451 32.8877 50.0983 29.9131 50.0983 26.7873C50.0983 23.6615 49.4451 20.6869 48.2672 17.9942L48.3222 18.1363C46.0443 12.7371 41.8345 8.5273 36.5797 6.30438L36.4353 6.24938C33.8847 5.12646 30.9101 4.47334 27.7843 4.47334C24.6585 4.47334 21.6839 5.12646 18.9912 6.30438L19.1333 6.24938C13.7341 8.5273 9.52429 12.7371 7.30138 17.9919L7.24638 18.1363C6.06479 20.8765 5.46022 23.8307 5.47033 26.8148C5.46293 31.5329 6.97255 36.1285 9.77637 39.9231L9.73283 39.8635L6.92554 48.1433L15.5239 45.4071C19.1158 47.8263 23.3505 49.1131 27.6812 49.1013H27.7889H27.7843ZM27.7843 3.09672e-06H27.8599C31.5908 3.09672e-06 35.1383 0.783753 38.3443 2.19771L38.177 2.13125C44.651 4.87438 49.6995 9.92292 52.3762 16.2227L52.4426 16.3969C53.7901 19.4608 54.5739 23.0335 54.5739 26.7896C54.5739 30.5456 53.7901 34.1183 52.3762 37.3519L52.4426 37.1823C49.6995 43.6563 44.651 48.7048 38.3512 51.3815L38.177 51.4479C35.136 52.7954 31.5885 53.5792 27.8576 53.5792H27.7797H27.7843H27.6628C22.9443 53.5792 18.5145 52.3394 14.6828 50.1692L14.8135 50.2379L-0.00216675 55L4.83096 40.6106C2.30809 36.4606 0.980527 31.6944 0.994708 26.8377C0.994708 23.0656 1.77846 19.4769 3.19242 16.225L3.12596 16.3969C5.86908 9.92292 10.9176 4.87438 17.2174 2.19771L17.3916 2.13125C20.6465 0.713395 24.1606 -0.0123742 27.711 3.09672e-06H27.7866H27.782H27.7843Z" fill="#FFFBFB"/>
</g>
<defs>
<clipPath id="clip0_5_4">
<rect width="55" height="55" fill="white"/>
</clipPath>
</defs>
</svg>
